# xmcd CD database file
# Copyright (C) 1993-1998 Ti Kan
# 
# Track frame offsets:
#     183
#     23408
#     42933
#     73458
#     90133
#     108033
#     130383
#     149420
#     161283
#     183358
#     199683
#     217283
#     230358
#     242158
#     265608
#     280808
# 
# Disc length: 4038 seconds
# 
# Revision: 1
# Processed by: cddbd v1.4b41PL1 Copyright (c) Steve Scherf et al.
# Submitted via: DiscPlay 4.0.4
# 
DISCID=dd0fc410
DTITLE=Muddy Waters - Deja Vu
DYEAR=1900
DGENRE=
TTITLE0=Long distance call
TTITLE1=Where's my woman
TTITLE2=Honky Tonk
TTITLE3=Off the wall
TTITLE4=Blow wind blow
TTITLE5=Howlin' wolf
TTITLE6=Can't get no grindin'
TTITLE7=Trouble no more
TTITLE8=Soon forgotten
TTITLE9=Corinne, Corinne
TTITLE10=Garbage Man
TTITLE11=I'm your hoochie coochie man
TTITLE12=Baby please don't go
TTITLE13=Manish Boy
TTITLE14=Everything gonna be alright
TTITLE15=Got my mojo working
EXTD=
EXTT0=
EXTT1=
EXTT2=
EXTT3=
EXTT4=
EXTT5=
EXTT6=
EXTT7=
EXTT8=
EXTT9=
EXTT10=
EXTT11=
EXTT12=
EXTT13=
EXTT14=
EXTT15=
PLAYORDER=
